<svg version="1.1" id="Layer_1" xmlns="http://www.w3.org/2000/svg" xmlns:xlink="http://www.w3.org/1999/xlink" x="0px" y="0px" viewBox="-336.6 472.6 222.3 130.6" style="enable-background:new -336.6 472.6 222.3 130.6;" xml:space="preserve">
 <style type="text/css">
  .st0{fill:#1A3E6F;}
 </style>
 <g>
  <path class="st0" d="M-316.2,581.7c-0.8-3.4-2.9-5.9-7-5.9c-6,0-8.5,5.6-8.5,11.4c0,5.7,2.5,11.4,8.5,11.4c4.3,0,6.7-3.5,7.1-7.8
		h4.8c-0.4,7.1-5.1,12.1-11.9,12.1c-8.4,0-13.4-7.1-13.4-15.6s5-15.6,13.4-15.6c6.3,0,11.3,3.8,11.8,10.2L-316.2,581.7L-316.2,581.7
		z">
  </path>
  <path class="st0" d="M-308.4,581h4.2v4.2h0.1c0.5-2.3,3.2-4.8,5.9-4.8c1,0,1.3,0.1,1.7,0.1v4.6c-0.6-0.1-1.3-0.2-1.9-0.2
		c-3.1,0-5.5,2.6-5.5,7.4v10.3h-4.5V581z">
  </path>
  <path class="st0" d="M-292,592.6c0,3.4,1.7,6.4,5.4,6.4c2.6,0,4.1-1.2,4.9-3.6h4.2c-1,4.7-4.7,7.4-9.1,7.4c-6.3,0-9.9-4.7-9.9-11.4
		c0-6.1,3.8-11.4,9.8-11.4c6.4,0,10.3,6.1,9.5,12.6L-292,592.6L-292,592.6z M-281.6,589.4c-0.2-3-2.1-5.7-5.1-5.7
		c-3.1,0-5.2,2.5-5.3,5.7H-281.6z">
  </path>
  <path class="st0" d="M-255.8,602.6h-4.2v-2.9h-0.1c-1.2,2.5-3.7,3.5-6.3,3.5c-6.4,0-9.5-5.1-9.5-11.5c0-7.8,4.3-11.2,8.8-11.2
		c2.5,0,5.4,1,6.7,3.4h0.1v-11h4.5V602.6z M-265.8,599.4c4,0,5.7-3.9,5.7-7.6c0-4.8-2.1-7.6-5.6-7.6c-4.2,0-5.7,4-5.7,7.9
		C-271.4,595.7-269.6,599.4-265.8,599.4z">
  </path>
  <path class="st0" d="M-251.8,572.8h4.5v4.5h-4.5V572.8z M-251.8,581h4.5v21.6h-4.5V581z">
  </path>
  <path class="st0" d="M-245.5,580.8h3.4v-6.5h4.5v6.5h4v3.5h-4v11.5c0,2,0.2,3,2.1,3c0.6,0,1.2,0,1.9-0.2v3.7
		c-1,0.1-1.9,0.2-2.9,0.2c-4.6,0-5.5-1.9-5.6-5.5v-12.8h-3.4V580.8L-245.5,580.8z">
  </path>
  <path class="st0" d="M-222.2,572.2h4.9v17.4c0,4,0.2,8.7,6.6,8.7c6.3,0,6.6-4.6,6.6-8.7v-17.4h4.9v19.1c0,7.6-4.6,11.5-11.5,11.5
		s-11.5-3.8-11.5-11.5V572.2z">
  </path>
  <path class="st0" d="M-195.6,581.1h4.2v3.2l0.1,0.1c1.3-2.4,3.6-3.9,6.3-3.9c4.4,0,7.2,2.5,7.2,7.4v14.8h-4.5v-13.6
		c-0.1-3.4-1.3-4.9-3.9-4.9c-3,0-4.9,2.5-4.9,5.7v12.8h-4.5V581.1L-195.6,581.1z">
  </path>
  <path class="st0" d="M-174,572.8h4.5v4.5h-4.5V572.8z M-174,581.1h4.5v21.6h-4.5V581.1z">
  </path>
  <path class="st0" d="M-167,591.4c0-6.6,3.7-11.4,10.2-11.4s10.2,4.8,10.2,11.4c0,6.6-3.7,11.4-10.2,11.4S-167,598-167,591.4z
		 M-151.1,591.4c0-3.7-1.8-7.6-5.8-7.6s-5.8,3.9-5.8,7.6c0,3.8,1.8,7.6,5.8,7.6S-151.1,595.1-151.1,591.4z">
  </path>
  <path class="st0" d="M-144.4,581.1h4.2v3.2l0.1,0.1c1.3-2.4,3.6-3.9,6.3-3.9c4.4,0,7.2,2.5,7.2,7.4v14.8h-4.5v-13.6
		c-0.1-3.4-1.3-4.9-4-4.9c-3,0-4.9,2.5-4.9,5.7v12.8h-4.5L-144.4,581.1L-144.4,581.1z">
  </path>
  <g>
   <g>
    <g>
     <path class="st0" d="M-335.8,516.8h23.5v6.8h-14.4v8.3h13.3v6.8h-13.3v13.5h-9.2L-335.8,516.8L-335.8,516.8z">
     </path>
     <path class="st0" d="M-309.9,516.8h24.9v6.8h-15.8v7.4h14.9v6.8h-14.9v7.6h16.2v6.9h-25.3V516.8z">
     </path>
     <path class="st0" d="M-281.9,516.7h14c4,0,9.2,0.4,12.7,3c4.9,3.6,6.3,9.5,6.3,14.7c0,7.9-2.4,13.7-9.1,16.5
					c-3.4,1.4-7.5,1.4-9.8,1.4h-14.1V516.7z M-272.4,545.4h4c6.1,0,10-2.9,10-11.1c0-10.8-7.6-10.8-10.4-10.8h-3.6V545.4z">
     </path>
     <path class="st0" d="M-246.6,516.8h24.9v6.8h-15.8v7.4h14.9v6.8h-14.9v7.6h16.2v6.9h-25.3V516.8z">
     </path>
     <path class="st0" d="M-218.8,516.7h15.4c6,0,8.2,0.4,10.2,2.6c1,1.1,2.3,3,2.3,6.9c0,3.9-1.5,5.6-3,6.6
					c-2.1,1.4-4.1,1.7-5.1,1.8v0.2c6.4,0.2,6.8,3.2,7.6,8.7c0.3,2.4,0.8,6.2,1.6,8.8h-10c-0.6-2.2-0.8-4.9-1.1-8
					c-0.4-4.3-0.6-5.9-4.7-5.9h-3.9v13.9h-9.2L-218.8,516.7L-218.8,516.7z M-209.6,532h3.4c2,0,3,0,3.8-0.3c2-0.7,2.4-2.9,2.4-4
					c0-4.4-3.6-4.4-6.3-4.4h-3.4L-209.6,532L-209.6,532z">
     </path>
     <path class="st0" d="M-176.1,516.7h11.2l13.1,35.5h-10.4l-2.3-7.1h-13.3l-2.2,7.1h-9.2L-176.1,516.7z M-166.6,538.6l-4.3-14.9
					h-0.1l-4.6,14.9H-166.6z">
     </path>
     <path class="st0" d="M-150.8,516.7h9.4v28.5h14.9v7h-24.3V516.7L-150.8,516.7z">
     </path>
    </g>
    <g>
     <path class="st0" d="M-335.8,477.4h12.7l11.2,26.5l-0.1-26.5h8.1V513h-12.5l-11.4-27.7l0.1,27.7h-8.1V477.4L-335.8,477.4z">
     </path>
     <path class="st0" d="M-288.4,477.4h11.2L-264,513h-10.4l-2.3-7.1H-290l-2.3,7.1h-9.2L-288.4,477.4z M-278.8,499.3l-4.3-14.9
					h-0.1l-4.6,14.9H-278.8z">
     </path>
     <path class="st0" d="M-270.9,477.4h10.2l7.6,25.7l8-25.7h9.2l-12.2,35.6h-11L-270.9,477.4z">
     </path>
     <path class="st0" d="M-225.7,477.4l7.3,14.9l7.5-14.9h9.5l-13,23V513h-9.3v-13l-12.7-22.5h10.7V477.4z">
     </path>
    </g>
    <rect x="-335.8" y="556.4" class="st0" width="209.3" height="9.3">
    </rect>
    <path class="st0" d="M-150.2,493.3c0-10.8-8.3-19.7-18.9-20.6c-0.6-0.1-1.2-0.1-1.8-0.1s-1.2,0-1.7,0.1
				c-5.8,0.5-11.2,3.4-14.7,8.1l0,0l-0.4,0.5l-0.4,0.5l0,0c-2.3,3.4-3.5,7.4-3.5,11.5c0,10.8,8.3,19.7,18.9,20.6
				c0.6,0.1,1.2,0.1,1.8,0.1s1.2,0,1.8-0.1C-158.5,513-150.2,504.1-150.2,493.3z M-161.4,508.6h-2.9c0.8-1.6,1.5-3.6,2-5.8h4.8
				C-158.5,505.1-159.9,507-161.4,508.6z M-184.4,502.8h4.8c0.5,2.2,1.2,4.1,2,5.8h-2.9C-182,507-183.4,505.1-184.4,502.8z
				 M-190.3,494h2.7c0.1,2.7,0.6,5.2,1.4,7.6h-2.2C-189.6,499.2-190.2,496.7-190.3,494z M-184.2,483.3c1-2.1,2.3-3.9,3.8-5.3h2.9
				c-0.6,1.2-1.2,2.7-1.7,4.3l0,0l-0.2,0.6l-0.2,0.6l0,0c0,0.1,0,0.1,0,0.2h-4.8C-184.3,483.6-184.2,483.5-184.2,483.3z
				 M-157.5,483.8h-4.8c-0.5-2.2-1.2-4.1-2-5.8h2.9C-159.9,479.6-158.5,481.6-157.5,483.8z M-151.6,492.7h-2.7
				c-0.1-2.7-0.5-5.2-1.4-7.6h2.2C-152.3,487.4-151.6,490-151.6,492.7z M-155.5,492.7h-5.7c0-2.7-0.3-5.2-0.8-7.6h5.1
				C-156.1,487.4-155.6,490-155.5,492.7z M-178.1,483.3c0.5-2.1,1.2-3.9,2-5.3h4.5v5.8h-6.6C-178.2,483.6-178.1,483.5-178.1,483.3z
				 M-176.8,476.7h-2.1c1.1-0.9,2.4-1.6,3.7-2C-175.8,475.2-176.3,475.9-176.8,476.7z M-171.6,474v2.8h-3.6
				C-174.1,475.2-172.9,474.2-171.6,474z M-170.3,476.7V474c1.3,0.2,2.5,1.2,3.6,2.8h-3.6V476.7z M-165.9,478
				c0.9,1.6,1.6,3.5,2.2,5.8h-6.6V478H-165.9z M-171.6,485.1v7.6h-7.7c0-2.6,0.3-5.2,0.8-7.6H-171.6z M-171.6,494v7.6h-6.9
				c-0.5-2.3-0.8-4.9-0.8-7.6C-179.3,494-171.6,494-171.6,494z M-171.6,502.8v5.8h-4.4c-0.9-1.6-1.6-3.5-2.2-5.8H-171.6z
				 M-171.6,509.9v2.8c-1.3-0.2-2.5-1.2-3.6-2.8H-171.6z M-170.3,509.9h3.6c-1.1,1.5-2.3,2.5-3.6,2.8V509.9z M-170.3,508.6v-5.8h6.6
				c-0.6,2.2-1.3,4.2-2.2,5.8H-170.3z M-170.3,501.5V494h7.7c0,2.7-0.3,5.2-0.8,7.6h-6.9V501.5z M-170.3,492.7v-7.6h6.9
				c0.5,2.3,0.8,4.9,0.8,7.6H-170.3z M-165.1,476.7c-0.5-0.8-1-1.5-1.6-2.1c1.3,0.5,2.6,1.2,3.7,2.1
				C-163,476.7-165.1,476.7-165.1,476.7z M-179.8,485.1c-0.5,2.4-0.7,5-0.8,7.6h-5.7c0.1-2.6,0.6-5.2,1.4-7.6H-179.8z M-187.6,492.7
				h-2.7c0.1-2.6,0.7-5.2,1.8-7.6h2.2C-187.1,487.5-187.6,490-187.6,492.7z M-186.3,494h5.7c0,2.7,0.3,5.2,0.8,7.6h-5.1
				C-185.8,499.2-186.3,496.7-186.3,494z M-176.8,509.9c0.5,0.8,1,1.5,1.6,2.1c-1.3-0.5-2.6-1.2-3.7-2.1H-176.8z M-165.1,509.9h2.1
				c-1.2,0.9-2.4,1.6-3.7,2.1C-166.1,511.4-165.6,510.7-165.1,509.9z M-162,501.5c0.5-2.3,0.7-4.9,0.8-7.6h5.7
				c-0.1,2.7-0.6,5.2-1.4,7.6H-162z M-154.2,494h2.7c-0.1,2.7-0.7,5.2-1.8,7.6h-2.2C-154.8,499.2-154.3,496.6-154.2,494z
				 M-154,483.8h-2c-0.9-2.2-2.1-4.1-3.6-5.8h0.6C-157,479.6-155.3,481.6-154,483.8z M-160.9,476.7L-160.9,476.7L-160.9,476.7
				L-160.9,476.7z M-182.9,478h0.6c-1.1,1.2-2,2.6-2.8,4.2l0,0l-0.3,0.6l-0.3,0.6l0,0c-0.1,0.1-0.1,0.3-0.2,0.4h-2
				c0.3-0.6,0.7-1.2,1.1-1.8C-185.6,480.5-184.3,479.2-182.9,478z M-187.8,502.8h2c0.9,2.2,2.1,4.1,3.6,5.8h-0.6
				C-184.9,507-186.6,505.1-187.8,502.8z M-181,509.9L-181,509.9L-181,509.9C-180.9,509.9-180.9,509.9-181,509.9z M-160.9,509.9
				L-160.9,509.9L-160.9,509.9L-160.9,509.9z M-159,508.6h-0.6c1.5-1.6,2.6-3.6,3.6-5.8h2C-155.3,505.1-157,507-159,508.6z">
    </path>
   </g>
  </g>
  <g>
   <path class="st0" d="M-119.2,555.5c2.7,0,4.9,2.2,4.9,5s-2.2,5-4.9,5s-5-2.2-5-5C-124.2,557.8-121.9,555.5-119.2,555.5
			L-119.2,555.5z M-119.2,556.3c-2.2,0-4,1.9-4,4.2c0,2.4,1.8,4.2,4,4.2s4-1.9,4-4.2S-117,556.3-119.2,556.3L-119.2,556.3
			L-119.2,556.3z M-120.1,563.4h-0.9v-5.6c0.5-0.1,0.9-0.1,1.6-0.1c0.9,0,1.4,0.2,1.7,0.4c0.3,0.2,0.5,0.6,0.5,1.2
			c0,0.7-0.5,1.2-1.1,1.4l0,0c0.5,0.1,0.8,0.5,0.9,1.4c0.1,0.9,0.3,1.2,0.4,1.4h-0.9c-0.1-0.2-0.3-0.7-0.4-1.4c-0.1-0.7-0.5-1-1.2-1
			h-0.6V563.4L-120.1,563.4z M-120.1,560.4h0.6c0.7,0,1.4-0.3,1.4-1c0-0.5-0.4-1-1.4-1c-0.3,0-0.5,0-0.6,0V560.4z">
   </path>
  </g>
 </g>
</svg>